static_grf.mot
version=1
nRows=22
nColumns 19
inDegrees=yes
endheader
time	1_ground_force_vx	1_ground_force_vy	1_ground_force_vz	1_ground_force_px	1_ground_force_py	1_ground_force_pz	1_ground_torque_x	1_ground_torque_y	1_ground_torque_z	2_ground_force_vx	2_ground_force_vy	2_ground_force_vz	2_ground_force_px	2_ground_force_py	2_ground_force_pz	2_ground_torque_x	2_ground_torque_y	2_ground_torque_z
            0.005000	           -2.421667	          342.158612	          -44.017180	           -0.251917	            0.006263	           -0.415519	           -0.035079	            4.956345	           -0.637612	           -0.014475	          554.323097	           45.339135	           -0.264651	            0.005422	           -0.667979	            0.000123	           -4.717268	           -0.385834
            0.005500	           -2.375935	          340.897321	          -44.160277	           -0.251805	            0.006266	           -0.416075	           -0.034504	            4.950613	           -0.641309	            0.035157	          553.585577	           45.618056	           -0.264784	            0.005421	           -0.667692	           -0.000303	           -4.768861	           -0.392977
            0.006000	           -2.787872	          341.076357	          -43.883344	           -0.251748	            0.006265	           -0.415914	           -0.039333	            4.812147	           -0.619137	           -0.061305	          554.322761	           45.386083	           -0.264790	            0.005422	           -0.667944	            0.000519	           -4.688787	           -0.383902
            0.006500	           -2.467378	          341.437541	          -44.020159	           -0.251816	            0.006264	           -0.415640	           -0.035394	            4.897840	           -0.631459	           -0.013811	          554.138896	           45.338478	           -0.264733	            0.005422	           -0.667958	            0.000117	           -4.692516	           -0.383932
            0.007000	           -2.604712	          341.617356	          -43.927333	           -0.251866	            0.006264	           -0.415660	           -0.037674	            4.941030	           -0.635349	            0.128130	          553.770620	           45.477889	           -0.264814	            0.005421	           -0.667680	           -0.001095	           -4.733937	           -0.388770
            0.007500	           -2.604565	          341.436924	          -43.882253	           -0.251884	            0.006264	           -0.415629	           -0.037551	            4.922572	           -0.632660	           -0.011817	          553.586413	           45.336507	           -0.264827	            0.005420	           -0.667555	            0.000101	           -4.735174	           -0.387792
            0.008000	           -2.512439	          340.895524	          -43.747228	           -0.251956	            0.006266	           -0.416083	           -0.036385	            4.936877	           -0.633551	           -0.248725	          554.322252	           45.339235	           -0.264699	            0.005422	           -0.667873	            0.002071	           -4.614596	           -0.377438
            0.008500	           -2.422089	          341.979102	          -44.201377	           -0.251770	            0.006264	           -0.415682	           -0.034815	            4.915621	           -0.635352	           -0.013085	          553.954314	           45.478606	           -0.264843	            0.005420	           -0.667665	            0.000111	           -4.693011	           -0.385287
            0.009000	           -2.650489	          341.256816	          -43.928765	           -0.251633	            0.006265	           -0.415831	           -0.038018	            4.894848	           -0.630096	           -0.154943	          554.321920	           45.526908	           -0.264918	            0.005420	           -0.667604	            0.001322	           -4.731275	           -0.388583
            0.009500	           -2.420870	          342.157236	          -43.696193	           -0.251887	            0.006265	           -0.415808	           -0.034880	            4.929839	           -0.629579	           -0.012543	          553.771116	           45.196380	           -0.264727	            0.005421	           -0.667678	            0.000106	           -4.659881	           -0.380319
            0.010000	           -2.421161	          341.256663	          -43.883481	           -0.251759	            0.006265	           -0.415982	           -0.034956	            4.927030	           -0.633585	           -0.062634	          554.691042	           45.387398	           -0.264903	            0.005421	           -0.667953	            0.000531	           -4.703113	           -0.384831
            0.010500	           -2.467444	          341.798072	          -44.018613	           -0.251946	            0.006262	           -0.415251	           -0.035674	            4.941668	           -0.636415	            0.128089	          553.770954	           45.384032	           -0.264857	            0.005421	           -0.667782	           -0.001084	           -4.685257	           -0.383978
            0.011000	           -2.420819	          341.256074	          -43.745910	           -0.252022	            0.006264	           -0.415799	           -0.035283	            4.973811	           -0.637597	            0.079848	          554.139569	           45.244582	           -0.265000	            0.005420	           -0.667824	           -0.000682	           -4.735737	           -0.386665
            0.011500	           -2.513155	          341.077000	          -44.021591	           -0.252210	            0.006264	           -0.415591	           -0.036372	            4.936269	           -0.637107	            0.033683	          553.955153	           45.290873	           -0.264881	            0.005420	           -0.667598	           -0.000285	           -4.686994	           -0.383204
            0.012000	           -2.329783	          341.077036	          -44.022046	           -0.251783	            0.006264	           -0.415751	           -0.034037	            4.982943	           -0.643137	           -0.059996	          553.954647	           45.337841	           -0.265020	            0.005420	           -0.667766	            0.000505	           -4.659777	           -0.381375
            0.012500	           -2.375431	          341.256869	          -43.929447	           -0.251958	            0.006265	           -0.415930	           -0.034546	            4.962896	           -0.638866	            0.035657	          553.402837	           45.241974	           -0.264949	            0.005420	           -0.667636	           -0.000301	           -4.678870	           -0.382509
            0.013000	           -2.375758	          341.798090	          -44.018840	           -0.251774	            0.006263	           -0.415522	           -0.034263	            4.929458	           -0.634846	            0.034307	          553.771286	           45.196360	           -0.264991	            0.005420	           -0.667645	           -0.000292	           -4.716940	           -0.384976
            0.013500	           -2.696218	          341.256610	          -43.882799	           -0.252084	            0.006266	           -0.416047	           -0.038620	            4.888067	           -0.628565	           -0.013085	          553.954314	           45.478606	           -0.264945	            0.005421	           -0.667835	            0.000111	           -4.697092	           -0.385622
            0.014000	           -2.467345	          341.257244	          -44.020932	           -0.252042	            0.006265	           -0.415889	           -0.035482	            4.907525	           -0.633053	            0.032436	          554.322764	           45.479900	           -0.264825	            0.005421	           -0.667810	           -0.000273	           -4.671357	           -0.383266
            0.014500	           -2.467216	          341.797679	          -43.926901	           -0.251894	            0.006264	           -0.415679	           -0.035701	            4.945834	           -0.635625	            0.268597	          553.771797	           45.290116	           -0.265020	            0.005421	           -0.667920	           -0.002299	           -4.740642	           -0.387712
            0.015000	           -2.374925	          340.354981	          -43.795748	           -0.251982	            0.006266	           -0.416173	           -0.034100	            4.886922	           -0.628833	            0.083254	          553.218135	           45.429009	           -0.265097	            0.005419	           -0.667445	           -0.000700	           -4.652344	           -0.382040
            0.015500	           -2.283761	          340.716317	          -43.977853	           -0.251727	            0.006267	           -0.416355	           -0.033666	            5.022596	           -0.648290	            0.036363	          553.218300	           45.335173	           -0.265092	            0.005419	           -0.667513	           -0.000309	           -4.697825	           -0.384978
